<?xml version="1.0" encoding="UTF-8"?><svg id="_圖層_2" xmlns="http://www.w3.org/2000/svg" viewBox="0 0 68.46 68.46"><defs><style>.cls-1{fill:#fff;}.cls-2{fill:#dae000;}</style></defs><g id="_圖層_1-2"><circle class="cls-2" cx="34.23" cy="34.23" r="34.23" transform="translate(-14.18 34.23) rotate(-45)"/><g><path class="cls-1" d="M40.02,15.15v-.48c-2.71-.7-4.85-2.84-5.55-5.55h-.48c-.7,2.71-2.84,4.85-5.55,5.55v.48c2.72,.7,4.85,2.84,5.55,5.55h.48c.7-2.71,2.84-4.85,5.55-5.55Z"/><path class="cls-1" d="M27.89,32.3h4.07c-1.47-7.98-7.39-14.4-15.09-16.58v7.06c5.26,.75,9.54,4.53,11.02,9.52Z"/><path class="cls-1" d="M36.52,32.3h4.07c1.48-4.99,5.76-8.77,11.02-9.52v-7.06c-7.7,2.18-13.62,8.6-15.09,16.58Z"/><path class="cls-1" d="M28.31,34.23h-11.44v3.86h11.44c-.85,5.92-5.52,10.59-11.44,11.44v7.06c8.31-2.36,14.55-9.64,15.35-18.49,.06-.64,.09-1.28,.09-1.94s-.03-1.29-.09-1.92h-3.91Z"/><path class="cls-1" d="M36.26,34.23c-.06,.63-.09,1.28-.09,1.92s.03,1.3,.09,1.94c.8,8.85,7.04,16.14,15.35,18.49v-7.06c-5.92-.84-10.6-5.52-11.44-11.44h11.44v-3.86h-15.35Z"/></g></g></svg>