<?xml version="1.0" encoding="UTF-8"?><svg id="_圖層_2" xmlns="http://www.w3.org/2000/svg" viewBox="0 0 159.87 74.7"><defs><style>.cls-1{fill:#dae000;}.cls-2{fill:#727171;}</style></defs><g id="_圖層_1-2"><g><g><path class="cls-1" d="M35.98,9.38v-.75c-4.22-1.09-7.53-4.41-8.62-8.62h-.75c-1.09,4.22-4.41,7.53-8.63,8.62v.75c4.22,1.09,7.54,4.41,8.63,8.62h.75c1.09-4.22,4.41-7.53,8.62-8.62Z"/><path class="cls-1" d="M17.13,36.02h6.32C21.17,23.62,11.97,13.65,0,10.26v10.97c8.18,1.17,14.83,7.04,17.13,14.79Z"/><path class="cls-1" d="M30.54,36.02h6.32c2.3-7.75,8.96-13.63,17.13-14.79V10.26c-11.97,3.39-21.17,13.36-23.45,25.76Z"/><path class="cls-1" d="M17.78,39.02H0v6H17.78c-1.32,9.19-8.59,16.46-17.78,17.77v10.97c12.91-3.66,22.61-14.98,23.85-28.74,.09-.99,.14-2,.14-3.01s-.04-2.01-.14-2.99h-6.07Z"/><path class="cls-1" d="M30.14,39.02c-.09,.98-.14,1.98-.14,2.99s.04,2.02,.14,3.01c1.24,13.76,10.94,25.08,23.85,28.74v-10.97c-9.2-1.31-16.47-8.58-17.78-17.77h17.78v-6H30.14Z"/></g><g><path class="cls-2" d="M74.6,35.56c0-.73,.13-1.38,.38-1.94,.25-.56,.59-1.03,1.02-1.4,.41-.36,.87-.63,1.39-.82,.52-.19,1.04-.28,1.57-.28s1.05,.09,1.57,.28c.52,.19,.99,.46,1.42,.82,.41,.38,.74,.84,1,1.4,.25,.56,.38,1.21,.38,1.94v.92h-2.6v-.92c0-.63-.17-1.09-.52-1.39-.35-.3-.76-.45-1.24-.45s-.89,.15-1.24,.45c-.35,.3-.52,.76-.52,1.39v9.59c0,.63,.17,1.09,.52,1.39,.35,.3,.76,.45,1.24,.45s.89-.15,1.24-.45c.35-.3,.52-.76,.52-1.39v-3.42h-2.07v-2.3h4.67v5.71c0,.77-.13,1.42-.38,1.96-.26,.54-.59,1-1,1.35-.42,.37-.9,.65-1.42,.84-.52,.19-1.04,.28-1.57,.28s-1.05-.09-1.57-.28c-.52-.19-.98-.47-1.39-.84-.43-.36-.77-.81-1.02-1.35-.25-.54-.38-1.2-.38-1.96v-9.59Z"/><path class="cls-2" d="M85.62,49.43V31.27h4.18c3.06,0,4.59,1.78,4.59,5.33,0,1.07-.17,1.98-.5,2.73-.33,.75-.91,1.35-1.75,1.81l2.81,8.29h-2.75l-2.42-7.75h-1.56v7.75h-2.6Zm2.6-15.71v5.66h1.48c.46,0,.83-.06,1.1-.19,.27-.13,.49-.31,.64-.55,.14-.24,.23-.53,.28-.88,.05-.35,.08-.75,.08-1.21s-.03-.86-.08-1.21c-.05-.35-.15-.65-.31-.9-.32-.48-.94-.71-1.84-.71h-1.35Z"/><path class="cls-2" d="M96.48,49.43V31.27h7.75v2.45h-5.15v5.33h4.49v2.45h-4.49v5.33h5.15v2.6h-7.75Z"/><path class="cls-2" d="M105.92,49.43V31.27h7.75v2.45h-5.15v5.33h4.49v2.45h-4.49v5.33h5.15v2.6h-7.75Z"/><path class="cls-2" d="M115.26,49.43V31.27h2.5l3.93,10.94h.05v-10.94h2.6v18.16h-2.45l-3.98-10.92h-.05v10.92h-2.6Z"/><path class="cls-2" d="M131.43,49.43V31.27h4.18c3.06,0,4.59,1.78,4.59,5.33,0,1.07-.17,1.98-.5,2.73-.33,.75-.91,1.35-1.75,1.81l2.81,8.29h-2.75l-2.42-7.75h-1.56v7.75h-2.6Zm2.6-15.71v5.66h1.48c.46,0,.83-.06,1.1-.19,.27-.13,.49-.31,.64-.55,.14-.24,.23-.53,.28-.88,.05-.35,.08-.75,.08-1.21s-.03-.86-.08-1.21c-.05-.35-.15-.65-.31-.9-.32-.48-.94-.71-1.84-.71h-1.35Z"/><path class="cls-2" d="M141.12,49.43l4.06-18.16h2.17l4.06,18.16h-2.6l-.76-3.9h-3.54l-.76,3.9h-2.6Zm6.43-6.35l-1.28-6.58h-.05l-1.28,6.58h2.6Z"/><path class="cls-2" d="M153.69,49.43v-7.68l-3.57-10.48h2.76l2.09,7.22h.05l2.09-7.22h2.75l-3.57,10.48v7.68h-2.6Z"/><path class="cls-2" d="M74.75,74.7v-18.16h3.9c.71,0,1.34,.09,1.89,.28,.54,.19,1.04,.52,1.48,.99,.44,.48,.75,1.03,.92,1.67,.17,.64,.25,1.5,.25,2.59,0,.82-.05,1.5-.14,2.07-.09,.56-.29,1.09-.6,1.58-.36,.59-.83,1.06-1.43,1.39-.59,.33-1.38,.5-2.35,.5h-1.33v7.09h-2.6Zm2.6-15.71v6.17h1.25c.53,0,.94-.08,1.22-.23,.29-.15,.5-.37,.64-.64,.14-.26,.22-.57,.24-.94,.03-.37,.04-.79,.04-1.25,0-.42,0-.83-.03-1.21s-.09-.72-.23-1.01c-.14-.29-.34-.51-.61-.66-.27-.15-.66-.23-1.17-.23h-1.35Z"/><path class="cls-2" d="M85.13,74.7v-18.16h2.6v15.56h5.15v2.6h-7.75Z"/><path class="cls-2" d="M93.4,74.7l4.06-18.16h2.17l4.06,18.16h-2.6l-.76-3.9h-3.54l-.77,3.9h-2.6Zm6.43-6.35l-1.28-6.58h-.05l-1.28,6.58h2.6Z"/><path class="cls-2" d="M104.85,74.7v-18.16h2.5l3.93,10.94h.05v-10.94h2.6v18.16h-2.45l-3.98-10.92h-.05v10.92h-2.6Z"/></g><g><path class="cls-2" d="M74.48,19.62c-.3-.09-.6-.15-.9-.18,.18-.63,.35-1.46,.5-2.49l.86,.09c-.15,.97-.3,1.83-.45,2.58Zm-.54-6.24l-.32-.9c.18-.12,.36-.33,.54-.63,.54-.78,1.06-1.69,1.54-2.71l1.13,.36c-.27,.45-.74,1.16-1.4,2.13-.24,.36-.42,.63-.54,.81l1.22-.04c.33-.45,.63-.93,.9-1.45l.95,.5c-.66,1.03-1.6,2.31-2.81,3.85,.54,0,1.09-.03,1.63-.09-.03-.12-.09-.3-.18-.54-.09-.21-.17-.38-.23-.5l.77-.32c.33,.75,.65,1.52,.95,2.31l-.86,.32-.14-.41c-.24,0-.57,.03-1,.09-.54,.03-.9,.04-1.09,.04-.12,.03-.27,.06-.45,.09-.24,.03-.41,.06-.5,.09l-.36-1c.27-.15,.54-.41,.81-.77,.03-.06,.11-.15,.23-.27,.15-.18,.41-.54,.77-1.09-.69,.03-1.22,.08-1.58,.14Zm1.63,5.93c-.03-.27-.08-.68-.14-1.22-.03-.45-.06-.8-.09-1.04l.73-.09c.15,.94,.27,1.67,.36,2.22l-.86,.14Zm1.63-.36c-.09-.36-.3-1.04-.63-2.04l.77-.18c.06,.15,.14,.39,.23,.72,.21,.66,.36,1.09,.45,1.27l-.82,.23Zm1.18-6.38l.59-3.44h1.09l-.14,.77h3.89l-.45,3.39h1.22v.9h-2.81v.36c.06,.24,.2,.57,.41,1,.06,.15,.11,.26,.14,.32,.54-.42,1.04-.83,1.49-1.22l.68,.77c-.3,.27-.79,.62-1.45,1.04-.09,.09-.17,.15-.23,.18,.42,.54,1.06,1.07,1.9,1.58-.24,.3-.45,.6-.63,.91-1.09-.73-1.86-1.57-2.31-2.53v1.9c.03,.84-.38,1.28-1.22,1.31h-.63c-.33,.03-.57,.05-.72,.05-.06-.36-.14-.71-.23-1.04h1.04c.48,.03,.71-.15,.68-.54v-1.09l-2.26,1.4-.45-1c.72-.33,1.63-.83,2.72-1.49v-1.9h-2.9v-.9h4.48l.09-.72h-3.98Zm1.09,3.94c-.39-.42-.85-.83-1.36-1.22l.63-.63c.48,.36,.97,.74,1.45,1.13l-.72,.72Zm3.12-5.7h-2.81l-.18,.86h2.9l.09-.86Z"/><path class="cls-2" d="M98.72,14.73v-1.13h4.75v-4.48h1.27v4.48h4.8v1.13h-3.49v3.17c0,.48,.24,.72,.72,.72h.77c.45,0,.69-.23,.72-.68,.09-.36,.15-.89,.18-1.58,.42,.21,.81,.36,1.18,.45v.18c-.09,.66-.18,1.18-.27,1.54-.15,.78-.71,1.16-1.67,1.13h-1.27c-1.06,0-1.58-.5-1.58-1.49v-3.44h-1.94v.45c0,2.23-1.16,3.82-3.49,4.75-.12-.15-.3-.39-.54-.72-.12-.15-.21-.27-.27-.36,2.02-.66,3.03-1.9,3.03-3.71v-.18c.03-.09,.05-.17,.05-.23h-2.94Zm2.67-1.81c-.88-1.06-1.56-1.84-2.04-2.35l.9-.72c.66,.69,1.36,1.45,2.08,2.26l-.95,.81Zm5.25,.04l-.86-.81c.75-.75,1.45-1.54,2.08-2.35l.95,.72c-.42,.57-1.15,1.39-2.17,2.44Z"/><path class="cls-2" d="M123.6,11.43v-1.04h1.95c-.12-.42-.26-.8-.41-1.13l1.22-.18c.03,.06,.06,.17,.09,.32,.06,.21,.18,.54,.36,1h1.67v1.04h-4.89Zm.36,1.77v-.95h4.16v.95h-4.16Zm0,1.77v-.95h4.16v.95h-4.16Zm.09,4.89v-4.07h4.03v4.03h-1.09v-.54h-1.9v.59h-1.04Zm1.04-3.08v1.58h1.9v-1.58h-1.9Zm3.53-2.76v-1.13h2.35v-3.76h1.22v3.76h2.35v1.13h-2.35v5.88h-1.22v-5.88h-2.35Z"/><path class="cls-2" d="M148.56,11.7v-.72h4.75v-.54h-3.98v-.63h3.98v-.73h1.27v.73h3.89v1.18h1v.72h-1v1.18h-3.89v.5h4.07v.54h-4.07v.54h4.75v.68h-10.64v-.68h4.62v-.54h-4.07v-.54h4.07v-.5h-4.03v-.63h4.03v-.54h-4.75Zm0,7.87v-.77h10.95v.77h-10.95Zm1.04-1.18v-2.76h8.87v2.76h-8.87Zm1.18-2.17v.54h2.67v-.54h-2.67Zm0,1.04v.54h2.67v-.54h-2.67Zm6.56-6.83h-2.76v.54h2.76v-.54Zm-2.76,1.27v.54h2.76v-.54h-2.76Zm2.72,4.53h-2.72v.54h2.72v-.54Zm-2.72,1.04v.54h2.72v-.54h-2.72Z"/></g><g><path class="cls-2" d="M121.88,62.56v-.45h6.75v.45h-1.83c.45,.21,.92,.44,1.41,.7l-.45,.42c-.13-.07-.3-.19-.51-.34-1.54,.02-2.81,.05-3.82,.08-.09,0-.22,0-.39,.03h-.34l-.2-.45c.09-.02,.25-.07,.48-.14-.02,0,0,0,.06-.03,.17-.04,.37-.13,.59-.28h-1.74Zm1.49-4.44h.65v.23h1.01v.37h-1.01v.28h1.24v.37h-1.04c.47,.15,.87,.29,1.21,.42-.06-.04-.09-.07-.11-.08l.28-.39c.06,.02,.14,.06,.25,.11,.09,.06,.17,.1,.23,.14,.02-.13,.03-.31,.03-.53h-.65v-.48h.67v-.39h.59v.39h1.15c-.02,.79,0,1.41,.06,1.86,.04,.13,.08,.2,.14,.2,.04,0,.07-.07,.11-.2,0-.04,0-.09,.03-.17,.02-.06,.05-.22,.08-.51,.15,.06,.29,.11,.42,.17,0,.04,0,.09-.03,.17-.04,.26-.07,.46-.11,.59-.09,.34-.28,.52-.56,.53-.34-.02-.55-.21-.65-.59-.07-.3-.1-.83-.08-1.57h-.56c0,.24-.04,.52-.11,.84,.04,.02,.09,.05,.17,.08,.09,.06,.24,.15,.45,.28l-.28,.48c-.06-.04-.14-.09-.25-.17-.13-.07-.22-.13-.28-.17-.13,.22-.38,.51-.76,.84-.04-.04-.1-.1-.2-.2-.09-.11-.17-.2-.22-.25,.32-.24,.54-.49,.67-.73-.06-.04-.13-.08-.22-.14-.11-.06-.2-.09-.25-.11l-.23,.31c-.07-.04-.19-.07-.34-.11-.38-.15-.68-.26-.9-.34l.22-.28h-1.04l.28,.28c-.36,.15-.8,.3-1.32,.45-.06-.11-.12-.22-.2-.34,.39-.09,.8-.23,1.21-.39h-1.04v-.37h1.29v-.28h-1.04v-.37h1.04v-.23Zm-1.41-.28v-.51h1.77v-.42h.7v.42h1.66v-.42h.73v.42h1.77v.51h-1.77v.25h-.73v-.25h-1.66v.25h-.7v-.25h-1.77Zm1.41,1.94h.65v.28h.96v.34h-.96v.28l1.15-.03v.14c-.02,.11-.02,.2,0,.25-1.01,.02-2.02,.06-3.04,.11l-.06-.42h.62c.3-.02,.52-.03,.68-.03v-.31h-.98v-.34h.98v-.28Zm-.79,2v-.42h5.34v.42h-5.34Zm3.96,1.15l-.62-.31,.08-.06h-1.35c-.09,.06-.24,.13-.45,.23-.19,.07-.34,.14-.45,.2,.15,0,.36,0,.62-.03,.92-.02,1.64-.03,2.16-.03Z"/><path class="cls-2" d="M131.24,63.6v-2.62c-.06,.06-.15,.15-.28,.28-.11,.13-.21,.24-.28,.31-.07-.23-.15-.47-.22-.73,.54-.52,1.04-1.21,1.49-2.05l.53,.39c-.09,.19-.24,.43-.45,.73-.06,.09-.1,.17-.14,.22v3.46h-.65Zm-.42-4.33c-.07-.26-.17-.5-.28-.7,.52-.45,.98-1.01,1.38-1.69l.59,.39c-.45,.73-1.01,1.4-1.69,2Zm3.94,2.22c-.22-.26-.45-.51-.67-.73v2.84h-.7v-2.98c-.24,.66-.57,1.29-.98,1.91-.04-.13-.11-.34-.23-.62-.04-.11-.07-.2-.08-.25,.51-.64,.93-1.43,1.27-2.39h-.82v-.68h.84v-1.6h.7v1.6h.82v.68h-.82v.73l.03-.06c.3,.22,.66,.53,1.07,.93l-.42,.62Zm-.17-3.23c-.13-.26-.28-.52-.45-.76l.42-.2c.17,.23,.33,.48,.48,.76l-.45,.2Zm.42,1.66v-.65h2.28v.65h-.65v2.84c.02,.51-.25,.77-.82,.79h-.73c-.04-.23-.08-.45-.14-.67,.21,.02,.41,.03,.62,.03,.26,0,.38-.1,.37-.31v-2.67h-.93Zm.28-1.94v-.68h1.83v.68h-1.83Z"/><path class="cls-2" d="M140.67,62.11v1.01h-1.04v-1.01h1.04Z"/><path class="cls-2" d="M149.2,63.49c-1.59-.84-2.53-2.06-2.81-3.65-.28,1.57-1.24,2.82-2.87,3.74-.15-.24-.33-.48-.53-.7,1.8-.92,2.77-2.32,2.9-4.22,.04-.45,.06-1.01,.06-1.69h.84c-.02,.06-.03,.22-.03,.51-.02,.23-.03,.39-.03,.51,.17,2.44,1.18,4.04,3.04,4.81-.24,.26-.43,.5-.56,.7Z"/><path class="cls-2" d="M151.68,58.74v-.73h3.12c-.11-.34-.24-.66-.39-.98l.87-.14c.06,.19,.15,.46,.28,.82,.06,.13,.09,.23,.11,.31h2.67v.73h-1.15c-.28,1.18-.8,2.16-1.55,2.95,.73,.49,1.65,.86,2.75,1.12-.17,.21-.33,.44-.48,.7-1.26-.38-2.23-.81-2.92-1.29-.56,.41-1.52,.87-2.87,1.38-.11-.21-.27-.46-.48-.76,1.13-.3,2.04-.68,2.76-1.15-.77-.79-1.29-1.77-1.57-2.95h-1.15Zm3.32,2.45c.69-.64,1.14-1.45,1.35-2.45h-2.7c.22,.96,.67,1.77,1.35,2.45Z"/><path class="cls-2" d="M122.1,70.4c-.02-.07-.07-.19-.14-.34-.06-.15-.1-.25-.14-.31,.94-.51,1.65-1.12,2.14-1.83l.79,.06-.17,.25c.82,.58,1.4,1.01,1.71,1.29l-.42,.51-.08-.08v2.22h-2.73s0,.08-.03,.14c-.02,.15-.04,.25-.06,.31h2.9v1.91h-.62v-.34h-1.74v.34h-.62v-1.55c-.11,.41-.34,.86-.67,1.35-.02-.02-.05-.06-.08-.11-.19-.22-.31-.35-.37-.37,.3-.45,.5-.88,.59-1.29,.09-.39,.14-.99,.14-1.8v-.62l-.39,.25Zm3.51-.59c-.45-.39-.91-.78-1.38-1.15-.36,.41-.77,.8-1.24,1.15h1.07c-.02-.06-.06-.13-.11-.22-.07-.15-.12-.26-.14-.34l.53-.11c.13,.26,.23,.47,.28,.62l-.2,.06h1.18Zm-2.5,1.41v.45h2.02v-.45h-2.02Zm.03-.9v.45h2v-.45h-2Zm.37,2.81v.62h1.74v-.62h-1.74Zm2.9-.2v-4.22h.65v4.22h-.65Zm.2,1.63c-.02-.23-.06-.45-.11-.68h.76c.32,.02,.47-.11,.45-.39v-5.48h.68v5.65c.02,.58-.25,.87-.82,.87-.23,.02-.54,.03-.96,.03Z"/><path class="cls-2" d="M131.08,74.42c-.15-.09-.36-.2-.62-.31,.26-.36,.49-.75,.67-1.18l.65,.22c-.22,.47-.46,.89-.7,1.27Zm-.14-5.4v-.53h2.59l-.2-.51,.87-.06c.07,.19,.14,.38,.2,.56h2.45v.53h-1.24l.17,.03-.34,.53h1.8v.53h-6.72v-.53h1.8l-.34-.51,.34-.06h-1.38Zm.34,3.68v-2.19h5.2v2.19h-2.53c.22,.22,.44,.45,.65,.67l-.53,.39c-.17-.22-.4-.49-.7-.79l.39-.28h-2.47Zm.73-1.72v.42h3.74v-.42h-3.74Zm0,.82v.42h3.74v-.42h-3.74Zm.98,2.73c-.6,.02-.89-.26-.87-.84v-.7h.73v.53c-.04,.32,.13,.46,.51,.42h1.07c.34,.02,.53-.08,.59-.31,0-.04,0-.09,.03-.17,.04-.15,.07-.27,.08-.37,.04,.02,.1,.05,.2,.08,.23,.09,.39,.15,.51,.17-.06,.26-.11,.46-.17,.59-.11,.41-.46,.61-1.04,.59h-1.63Zm-.22-5.51s.08,.09,.14,.17c.13,.19,.22,.32,.25,.39h1.43c.04-.06,.1-.15,.2-.28,.07-.13,.13-.23,.17-.28h-2.19Zm3.88,5.26c-.11-.23-.3-.54-.56-.96-.06-.07-.09-.13-.11-.17l.65-.25c.24,.39,.48,.76,.7,1.1l-.67,.28Z"/><path class="cls-2" d="M140.67,73.16v1.01h-1.04v-1.01h1.04Z"/><path class="cls-2" d="M145.46,71.56v-.39c-.24,.02-.33,.03-.25,.03-.86,.06-1.57,.11-2.14,.17l-.08-.53,.53-.03v-2.08h-.45v-.51h3.35v.51h-.34v1.88c.11,0,.23,0,.37-.03-.02,.11-.03,.28-.03,.51l-.34,.03v.45h-.62Zm-2.25,1.97c-.08-.19-.15-.36-.23-.51,.71-.13,1.45-.37,2.22-.7l.25,.48c-.73,.3-1.48,.54-2.25,.73Zm.03,1.1c-.02-.07-.07-.19-.14-.34-.06-.09-.09-.17-.11-.23,.96-.21,1.83-.51,2.61-.9l.28,.51c-.92,.39-1.8,.71-2.64,.96Zm2.78,.06v-2.47c-.75,.06-1.55,.09-2.39,.11-.02-.21-.06-.4-.11-.59,2.06-.06,3.85-.16,5.37-.31l.11,.59c-.75,.06-1.51,.11-2.28,.17,.24,.34,.52,.61,.81,.82,.24-.11,.56-.29,.96-.53,.17-.07,.29-.14,.37-.2l.39,.48c-.47,.26-.86,.47-1.18,.62,.39,.22,.96,.39,1.69,.51-.04,.07-.09,.18-.17,.31-.08,.15-.13,.25-.17,.31-1.33-.34-2.23-.82-2.7-1.43v1.63h-.7Zm-1.91-5.96v.39h1.35v-.39h-1.35Zm0,.79v.39h1.35v-.39h-1.35Zm0,1.24c.45-.04,.9-.07,1.35-.08v-.37h-1.35v.45Zm5.15,.65c-.36-.24-.72-.51-1.1-.79-.36,.28-.82,.54-1.38,.79-.11-.21-.22-.4-.34-.59,.49-.17,.88-.36,1.18-.56-.11-.09-.28-.22-.51-.37-.24-.17-.42-.29-.53-.37l.37-.42c.39,.23,.79,.48,1.18,.76,.24-.26,.46-.57,.65-.93h-2.11v-.56h2.78v.62c-.22,.47-.5,.87-.82,1.21l1.01,.7-.39,.51Z"/><path class="cls-2" d="M152.63,72.12c-.06-.06-.15-.13-.28-.22-.32-.24-.57-.43-.76-.56l.45-.51c.13,.07,.31,.2,.53,.37,.24,.15,.42,.27,.53,.37l-.48,.56Zm-.98-2.98v-.62h1.8v-.59h.7v.59h1.71v-.59h.73v.59h1.77v.62h-1.77v.42h-.73v-.42h-1.71v.45h-.7v-.45h-1.8Zm.73,5.51l-.67-.28c.3-.69,.57-1.36,.82-2,.09,.04,.24,.09,.45,.17,.09,.04,.17,.07,.22,.08-.28,.67-.55,1.35-.82,2.02Zm.68-3.88s-.1-.08-.2-.14c-.36-.28-.64-.49-.84-.62l.42-.51c.41,.24,.78,.49,1.1,.73l-.48,.53Zm5.17,1.69c-1.01-.17-1.8-.38-2.36-.62-.56,.26-1.35,.51-2.36,.73-.08-.19-.16-.39-.25-.62,.84-.15,1.49-.31,1.94-.48-.26-.17-.51-.37-.73-.59-.21,.19-.42,.38-.65,.59-.04-.06-.11-.14-.23-.25-.09-.11-.17-.2-.22-.25,.58-.41,1.05-.92,1.41-1.52l.7,.03c-.02,.06-.06,.13-.11,.22-.04,.06-.07,.1-.08,.14h2.45v.62c-.32,.39-.7,.73-1.15,1.01,.49,.15,1.11,.27,1.86,.37-.02,.06-.05,.16-.08,.31-.06,.13-.09,.24-.11,.31Zm-4.33,2.22v-2.17h3.82v2.17h-.73v-.34h-2.36v.34h-.73Zm.73-1.6v.76h2.36v-.76h-2.36Zm2.28-2.67h-2.02c.28,.3,.61,.56,.98,.79,.39-.22,.74-.49,1.04-.79Z"/></g></g></g></svg>