<?xml version="1.0" encoding="UTF-8"?>
<svg id="_圖層_2" data-name="圖層 2" xmlns="http://www.w3.org/2000/svg" width="96.16mm" height="5.69mm" viewBox="0 0 272.59 16.12">
  <defs>
    <style>
      .cls-1 {
        fill: #231815;
      }
    </style>
  </defs>
  <g id="_圖層_1-2" data-name="圖層 1">
    <g>
      <path class="cls-1" d="M6.54,16.02V.9h.93v15.12h-.93Z"/>
      <path class="cls-1" d="M18.69,7.12c-.42,.24-.87,.46-1.35,.66v4.14c0,.86-.37,1.29-1.11,1.29-.26,0-.5-.02-.73-.05l-.32-.67h1.16c.07,.01,.13-.02,.2-.1s.1-.15,.1-.23v-4.05c-.59,.23-1.08,.4-1.47,.52l-.24-.64c.56-.18,1.13-.4,1.71-.66v-3.19h-1.68v-.68h1.68V.91h.71V3.45h1.11v.68h-1.11v2.87c.33-.15,.7-.33,1.11-.56l.24,.68Zm3.49-.09c0,1.61-.2,2.85-.61,3.71s-1.03,1.68-1.86,2.45l-.57-.51c1.2-1,1.92-2.17,2.15-3.5-.83,.36-1.75,.69-2.75,.99l-.28-.62c1.11-.35,2.16-.74,3.14-1.18,.07-.59,.1-1.19,.09-1.8h-2.58v-.72h2.58V3.71h-2.58v-.7h2.58V.92h.7V7.03Zm4.93,2.88h-2.67v3.31h-.72V.92h.72V3.01h2.53v.7h-2.53v2.14h2.3v.72h-2.3v2.66h2.67v.68Z"/>
      <path class="cls-1" d="M31.36,8.7c-.53,1.61-1.16,3.1-1.88,4.46l-.56-.42c.69-1.3,1.31-2.79,1.87-4.45l.57,.4Zm-.1-2.7l-.43,.55c-.44-.51-1.06-1.06-1.88-1.67l.46-.56c.77,.61,1.39,1.17,1.85,1.68Zm.31-3.38l-.47,.53c-.48-.54-1.11-1.1-1.89-1.68l.46-.53c.59,.41,1.23,.97,1.9,1.68Zm.75,3.42c-.13,.55-.29,1.05-.48,1.51l-.57-.2c.22-.5,.39-.99,.49-1.48l.56,.17Zm2.32-.73l-.53,.2c-.02-.11-.07-.22-.13-.32-.75,.17-1.51,.3-2.28,.39l-.23-.44c.72-.72,1.25-1.28,1.57-1.68-.6,.06-1,.1-1.2,.11l-.2-.5c.69-.77,1.21-1.51,1.57-2.24l.57,.29c-.27,.51-.69,1.11-1.26,1.8,.4-.03,.74-.08,1.02-.14,.09-.13,.23-.35,.4-.64l.56,.29c-.43,.74-1.07,1.54-1.93,2.42,.37-.05,.76-.12,1.18-.21-.02-.13-.08-.26-.17-.4l.53-.21c.16,.26,.33,.69,.52,1.29Zm5.89,5.61l-.18,1.3c-.04,.26-.15,.49-.35,.69s-.46,.29-.8,.29h-3.13l-.27-.66h3.38c.26,0,.41-.14,.46-.43l.1-.59h-7.92l.75-2.04h6.76v-.81h-7.48v-.59h8.19v2h-6.91l-.31,.84h7.71Zm-7.18-3.46l-.53,.08c-.05-.6-.13-1.09-.23-1.47l.56-.08c.13,.73,.19,1.22,.19,1.47Zm1.13-.29l-.55,.15c-.07-.45-.18-.9-.32-1.35l.53-.17c.15,.41,.26,.87,.33,1.37Zm3.27-4.74h-3.09v-.59h1.31c-.05-.21-.16-.47-.33-.77l.57-.24c.15,.27,.3,.61,.45,1.01h1.09v.59Zm-.39,1.14h-2.38v-.57h2.38v.57Zm0,1.16h-2.38v-.57h2.38v.57Zm.03,2.65h-2.41v-2.09h2.41v2.09Zm-.57-.59v-.92h-1.22v.92h1.22Zm1.76-.75c-.02,.45-.13,.98-.31,1.61l-.57-.14c.15-.43,.26-.96,.33-1.58l.55,.11Zm2.44-.6l-.57,.2c-.03-.14-.08-.28-.14-.42-.93,.17-1.71,.29-2.35,.36l-.18-.47c.49-.42,1.01-.95,1.58-1.6l-1.37,.09-.15-.44c.86-.98,1.43-1.74,1.71-2.28l.62,.25c-.34,.57-.8,1.19-1.39,1.83,.46-.03,.84-.08,1.13-.15,.22-.32,.37-.56,.44-.7l.57,.34c-.37,.62-1.04,1.43-1.99,2.41,.27,0,.64-.07,1.12-.18-.04-.13-.1-.26-.19-.39l.57-.21c.23,.47,.43,.93,.59,1.37Zm-1.19,2.02l-.61,.11c.03-.46-.03-.96-.18-1.5l.55-.1c.13,.5,.21,.99,.24,1.48Zm1.26-.08l-.55,.15c-.22-.68-.39-1.16-.51-1.43l.53-.15c.21,.39,.39,.87,.52,1.43Z"/>
      <path class="cls-1" d="M45.81,1.07c-.1,.42-.24,.95-.44,1.58l-.29,.88V13.19h-.75V5.49c-.29,.62-.65,1.29-1.08,2l-.39-.76c.91-1.55,1.65-3.51,2.21-5.88l.72,.21Zm9.38,9.55h-2.03v1.42c0,.33-.09,.61-.27,.83s-.61,.33-1.28,.33c-.32,0-.59-.02-.8-.05l-.39-.68c.42,.04,.79,.06,1.1,.06,.39,0,.64-.02,.73-.07s.14-.12,.14-.23v-1.61h-6.68v-.63h6.68v-.83h.77v.83h2.03v.63Zm.04-1.61l-.49,.45c-.14-.19-.33-.43-.56-.7l-8.19,.44-.12-.63,4.06-.21v-.96h-3.37V3.51h3.37v-.96h-3.92v-.64h3.92V.85h.73V1.91h4.16v.64h-4.16v.96h3.51v3.87h-.49c.68,.61,1.2,1.15,1.54,1.62Zm-5.22,3.17l-.53,.55c-.91-.57-1.73-1.02-2.47-1.35l.51-.55c.84,.37,1.67,.82,2.49,1.35Zm-.07-7.04v-1h-2.63v1h2.63Zm0,1.62v-1.02h-2.63v1.02h2.63Zm3.51-1.62v-1h-2.78v1h2.78Zm0,1.62v-1.02h-2.78v1.02h2.78Zm.09,1.4c-.22-.23-.43-.42-.62-.56l.25-.21h-2.5v.91c.93-.07,1.89-.12,2.87-.14Z"/>
      <path class="cls-1" d="M69.15,7.04h-1.78v4.96c0,.48-.12,.8-.37,.96s-.74,.24-1.49,.24c-.2,0-.37,0-.51-.02l-.24-.72c.48,.02,.91,.03,1.31,.03,.17,0,.31-.05,.41-.16s.16-.24,.16-.4V7.04h-9.66v-.72h12.17v.72Zm-.51-4.21h-5.33c-.07,.19-.13,.33-.18,.42,2.21,.7,3.99,1.37,5.31,2.03l-.37,.64c-1.61-.81-3.37-1.5-5.29-2.06-.89,1.12-2.47,1.79-4.73,2l-.31-.71c2.55-.19,4.14-.96,4.77-2.31h-5.07v-.71h5.29c.12-.36,.2-.76,.24-1.2l.72,.06c-.04,.45-.1,.82-.19,1.13h5.13v.71Zm-4.53,8.72h-5.69v-3.3h5.69v3.3Zm-.73-.72v-1.85h-4.22v1.85h4.22Z"/>
      <path class="cls-1" d="M75.5,10.63c-1.49,1.07-2.9,1.81-4.2,2.24l-.42-.67c1.3-.41,2.63-1.09,3.98-2.04l.64,.48Zm7.7-1.15h-5.81v3.71h-.72v-3.71h-5.74v-.66h5.74v-1.07h-4.14V3.53h3.79V.92h.72v.88h4.97v.69h-4.97v1.03h4.46V7.76h-4.12v1.07h5.81v.66Zm-2.39-4.22v-1.03h-7.57v1.03h7.57Zm0,1.83v-1.12h-7.57v1.12h7.57Zm2.42,5.25l-.51,.59c-1.22-.81-2.62-1.53-4.2-2.15l.48-.63c1.53,.63,2.94,1.36,4.24,2.19Z"/>
      <path class="cls-1" d="M97.28,12.18l-.25,.75c-.88,.01-1.75,.02-2.64,.02-1.63,0-2.8-.02-3.5-.05s-1.4-.17-2.12-.41-1.32-.62-1.82-1.13c-.4,.69-.89,1.31-1.47,1.85l-.55-.42c1.26-1.22,2.02-2.76,2.27-4.61h-2.06v-.68c.61-.82,1.23-1.8,1.86-2.91h-2.03v-.68h2.88v.68c-.72,1.2-1.34,2.17-1.86,2.91h1.91v.68c-.15,.96-.37,1.82-.67,2.56,.49,.51,1.07,.88,1.75,1.13s1.62,.38,2.82,.38c2.26,0,4.08-.02,5.46-.07Zm-9.65-9.19l-.57,.44c-.49-.79-1.06-1.5-1.69-2.14l.53-.42c.65,.59,1.23,1.29,1.74,2.12Zm4.81,.4h-2.3c.01,.4,0,.94-.04,1.61h2c0,1.29-.06,2.5-.16,3.66s-.19,1.82-.28,1.99-.25,.32-.47,.45-.64,.17-1.25,.14l-.22-.73c.18,.03,.37,.04,.56,.04,.29,0,.49-.03,.59-.09s.18-.14,.23-.26,.12-.75,.2-1.89,.12-2.01,.12-2.6h-1.34c-.12,2.39-.62,4.21-1.5,5.44l-.59-.42c1.03-1.43,1.51-3.87,1.44-7.33h-1.08v-.72h1.7c-.09-.46-.31-1-.66-1.61l.66-.24c.35,.69,.58,1.31,.71,1.85h1.67v.72Zm4.69-.08h-3.39c-.41,.61-.79,1.08-1.13,1.41l-.5-.46c.93-.96,1.64-2.09,2.13-3.39l.6,.27c-.21,.54-.44,1.03-.68,1.47h2.98v.7Zm-.01,4.88h-1.92v2.12c0,.33-.1,.57-.29,.72s-.56,.22-1.09,.22c-.17,0-.4,0-.67-.01l-.22-.72h1.3c.05-.01,.11-.05,.17-.12s.09-.14,.09-.2v-2h-1.92v-.68h1.92v-.8c.43-.41,.84-.84,1.23-1.27h-2.71v-.67h3.62v.67c-.6,.65-1.07,1.14-1.43,1.48v.59h1.92v.68Z"/>
      <path class="cls-1" d="M102.8,7.17c-.49,.28-.93,.5-1.33,.66v4.44c0,.28-.09,.5-.26,.67s-.54,.26-1.09,.26c-.18,0-.42,0-.72-.02l-.18-.74c.55,.02,.94,.02,1.17,0s.34-.11,.34-.27v-3.99c-.66,.27-1.2,.48-1.61,.63l-.23-.7c.73-.26,1.34-.49,1.83-.71v-3.25h-1.75v-.74h1.75V.92h.75V3.39h1.15v.74h-1.15v2.93c.56-.26,.97-.45,1.22-.59l.11,.7Zm8.35-2.58h-3.73v7.11h2.51v-2.14h-1.86v-.7h1.86v-2.02h-1.88v-.7h2.59v7h-.71v-.77h-5.76v.77h-.72V6.82c.67-.26,1.4-.64,2.17-1.13l.39,.6c-.57,.38-1.18,.71-1.83,.99v1.59h1.87v.7h-1.87v2.14h2.54V4.59h-3.49v-.67h3.49V1.98h-3.12v-.71h7.25v.71h-3.42v1.95h3.73v.67Z"/>
      <path class="cls-1" d="M124.56,13.17h-.72v-.91h-9.54v.91h-.75V1.42h11.01V13.17Zm-.72-1.57V2.06h-9.54V11.61h9.54Zm-.72-5.56h-8.12v-.57h3.73v-.68h-2.87v-1.96h6.44v1.96h-2.84v.68h3.66v.57Zm-.64,4.8h-6.82V6.69h6.82v4.16Zm-.7-.57v-3.03h-5.41v3.03h5.41Zm-.18-6.06v-.8h-5.02v.8h5.02Zm-.91,5.43h-3.25v-1.82h3.25v1.82Zm-.66-.55v-.72h-1.93v.72h1.93Z"/>
      <path class="cls-1" d="M132.54,16.02V.9h.93v15.12h-.93Z"/>
      <path class="cls-1" d="M153.16,8.09h-4.61v3.81c0,.12,.05,.21,.16,.26s.64,.09,1.6,.09c.86,0,1.37-.03,1.53-.1s.27-.76,.31-2.07l.75,.28c-.03,1.21-.17,1.95-.44,2.22s-.93,.4-2,.4c-1.21,0-1.9-.03-2.06-.09s-.3-.18-.41-.35-.17-.39-.17-.65v-3.81h-2.27c0,2.69-1.37,4.38-4.13,5.08l-.49-.66c2.65-.58,3.92-2.06,3.82-4.42h-3.81v-.71h12.21v.71Zm-.51-2.46h-.77V3.14h-9.67v2.5h-.79V2.41h5.2c-.36-.73-.6-1.19-.7-1.37l.77-.25c.35,.6,.61,1.14,.8,1.63h5.16v3.22Zm-1.75-.29h-7.71v-.69h7.71v.69Z"/>
      <path class="cls-1" d="M159.45,5.03h-1.71v.55c.63,.78,1.12,1.49,1.47,2.11l-.55,.47c-.24-.49-.55-.99-.92-1.48v6.48h-.69V6.76c-.5,1.32-1.02,2.4-1.58,3.23l-.48-.56c.81-1.22,1.49-2.69,2.03-4.4h-1.93v-.68h1.96V2.27c-.35,.08-.87,.18-1.57,.29l-.24-.64c1.19-.13,2.41-.46,3.66-1l.32,.62c-.41,.18-.9,.35-1.48,.51v2.3h1.71v.68Zm7.71-2.19h-7.77v-.63h3.6c-.11-.37-.26-.74-.46-1.11l.72-.18c.23,.44,.4,.87,.51,1.29h3.4v.63Zm-.35,9.13c0,.36-.09,.66-.27,.88s-.55,.33-1.12,.33h-.79l-.25-.7c.42,.03,.75,.04,.99,.04,.2,0,.34,0,.42-.01s.16-.06,.23-.16,.11-.19,.11-.28V7.85h-5.87v5.3h-.7V7.2h7.24v4.77Zm-.7-5.69h-5.65V3.71h5.65v2.56Zm-.7-.68v-1.23h-4.24v1.23h4.24Zm-.27,5.95h-3.83v-2.75h3.83v2.75Zm-.66-.68v-1.4h-2.54v1.4h2.54Z"/>
      <path class="cls-1" d="M174.54,16.02V.9h.93v15.12h-.93Z"/>
      <path class="cls-1" d="M189.04,12.46h-6.34v-1.03l3.08-3.1c1.02-1.03,1.65-1.78,1.88-2.24s.35-.95,.35-1.47c0-.62-.18-1.1-.53-1.44s-.86-.51-1.52-.51c-.94,0-1.85,.41-2.72,1.22v-1.22c.82-.65,1.77-.98,2.87-.98,.91,0,1.64,.25,2.19,.76s.82,1.19,.82,2.06c0,.67-.18,1.32-.54,1.97s-1.05,1.47-2.05,2.48l-2.47,2.44v.03h4.97v1.04Z"/>
      <path class="cls-1" d="M190.76,7.38c0-1.87,.3-3.28,.91-4.25s1.49-1.44,2.64-1.44c2.2,0,3.3,1.81,3.3,5.43,0,1.76-.3,3.12-.91,4.08s-1.48,1.44-2.64,1.44c-1.08,0-1.9-.46-2.46-1.38s-.85-2.21-.85-3.88Zm1.16-.06c0,2.9,.76,4.35,2.27,4.35s2.25-1.47,2.25-4.41-.73-4.59-2.19-4.59c-1.55,0-2.32,1.55-2.32,4.65Z"/>
      <path class="cls-1" d="M205.27,12.46h-6.34v-1.03l3.08-3.1c1.02-1.03,1.65-1.78,1.88-2.24s.35-.95,.35-1.47c0-.62-.18-1.1-.53-1.44s-.86-.51-1.52-.51c-.94,0-1.85,.41-2.72,1.22v-1.22c.82-.65,1.77-.98,2.87-.98,.91,0,1.64,.25,2.19,.76s.82,1.19,.82,2.06c0,.67-.18,1.32-.54,1.97s-1.05,1.47-2.05,2.48l-2.47,2.44v.03h4.97v1.04Z"/>
      <path class="cls-1" d="M213.59,12.46h-5.95v-1.02h2.41V3.12l-2.47,.75v-1.1l3.61-1.13V11.44h2.4v1.02Z"/>
      <path class="cls-1" d="M220.4,1.87l-5.08,12.35h-1.06l5.06-12.35h1.08Z"/>
      <path class="cls-1" d="M220.94,7.38c0-1.87,.3-3.28,.91-4.25s1.49-1.44,2.64-1.44c2.2,0,3.3,1.81,3.3,5.43,0,1.76-.3,3.12-.91,4.08s-1.48,1.44-2.64,1.44c-1.08,0-1.9-.46-2.46-1.38s-.85-2.21-.85-3.88Zm1.16-.06c0,2.9,.76,4.35,2.27,4.35s2.25-1.47,2.25-4.41-.73-4.59-2.19-4.59c-1.55,0-2.32,1.55-2.32,4.65Z"/>
      <path class="cls-1" d="M235.45,12.46h-6.34v-1.03l3.08-3.1c1.02-1.03,1.65-1.78,1.88-2.24s.35-.95,.35-1.47c0-.62-.18-1.1-.53-1.44s-.86-.51-1.52-.51c-.94,0-1.85,.41-2.72,1.22v-1.22c.82-.65,1.77-.98,2.87-.98,.91,0,1.64,.25,2.19,.76s.82,1.19,.82,2.06c0,.67-.18,1.32-.54,1.97s-1.05,1.47-2.05,2.48l-2.47,2.44v.03h4.97v1.04Z"/>
      <path class="cls-1" d="M242.47,1.87l-5.08,12.35h-1.06l5.06-12.35h1.08Z"/>
      <path class="cls-1" d="M243,7.38c0-1.87,.3-3.28,.91-4.25s1.49-1.44,2.64-1.44c2.2,0,3.3,1.81,3.3,5.43,0,1.76-.3,3.12-.91,4.08s-1.48,1.44-2.64,1.44c-1.08,0-1.9-.46-2.46-1.38s-.85-2.21-.85-3.88Zm1.16-.06c0,2.9,.76,4.35,2.27,4.35s2.25-1.47,2.25-4.41-.73-4.59-2.19-4.59c-1.55,0-2.32,1.55-2.32,4.65Z"/>
      <path class="cls-1" d="M251.75,11.17c.6,.33,1.22,.5,1.87,.5,.96,0,1.71-.39,2.26-1.18s.81-1.9,.81-3.35c0,0-.02,0-.03,0-.46,.92-1.25,1.38-2.38,1.38-.91,0-1.66-.31-2.24-.94s-.87-1.41-.87-2.36c0-1.01,.31-1.85,.93-2.52s1.43-1.01,2.45-1.01,1.88,.42,2.44,1.25,.85,2.03,.85,3.59c0,1.92-.37,3.42-1.11,4.5s-1.79,1.61-3.16,1.61c-.71,0-1.31-.12-1.82-.36v-1.11Zm.59-6.12c0,.74,.19,1.33,.58,1.77s.92,.67,1.6,.67c.6,0,1.1-.2,1.49-.6s.59-.88,.59-1.45c0-.79-.2-1.45-.59-1.98s-.92-.8-1.58-.8c-.62,0-1.12,.23-1.51,.69s-.59,1.02-.59,1.69Z"/>
      <path class="cls-1" d="M265.12,16.02V.9h.93v15.12h-.93Z"/>
    </g>
  </g>
</svg>