<?xml version="1.0" encoding="UTF-8"?>
<svg id="_圖層_2" data-name="圖層 2" xmlns="http://www.w3.org/2000/svg" width="27.73mm" height="5.81mm" viewBox="0 0 78.61 16.46">
  <defs>
    <style>
      .cls-1 {
        fill: #9e9d9d;
      }
    </style>
  </defs>
  <g id="_圖層_1-2" data-name="圖層 1">
    <g>
      <path class="cls-1" d="M2.65,.98c0,.05-.18,.63-.55,1.74,.34,.54,.52,1.04,.52,1.47,0,.28-.06,.51-.19,.67-.12,.17-.47,.25-1.03,.25l-.13-.37h.53c.16-.01,.27-.05,.35-.13s.12-.18,.12-.3c0-.51-.18-1.02-.55-1.54,.33-1.03,.51-1.63,.55-1.8H1.02V6.57h-.34V.62h1.97v.36Zm3.9,0h-.48V5.96c0,.4-.2,.6-.59,.6h-.75l-.14-.36h.94s.09-.02,.13-.06,.06-.08,.06-.12V.97H2.88v-.36h3.67v.36Zm-1.68,3.83h-1.85V1.91h1.85v2.9Zm-.36-.36V2.27h-1.13v2.18h1.13Z"/>
      <path class="cls-1" d="M10.53,1.51h-2.04c-.3,.39-.55,.7-.76,.92l-.29-.24c.55-.55,.97-1.13,1.25-1.74l.32,.15c-.07,.17-.17,.36-.31,.57h1.83v.35Zm2.55,1.56v3.5h-.37v-.4h-4.38v.39h-.36V3.07h2.38v-.55h.36v.55h2.38Zm-2.73,1.33v-.97h-2.02v.97h2.02Zm0,1.41v-1.06h-2.02v1.06h2.02Zm-.55-3.22l-.33,.13c-.12-.32-.27-.61-.47-.87l.33-.14c.21,.28,.37,.58,.47,.88Zm3.77-1.08h-2.31c-.27,.34-.49,.59-.67,.75l-.32-.22c.46-.4,.87-.94,1.25-1.62l.33,.15c-.08,.15-.21,.35-.36,.59h2.08v.35Zm-.85,2.89v-.97h-2.01v.97h2.01Zm0,1.41v-1.06h-2.01v1.06h2.01Zm-.03-3.23l-.33,.17c-.11-.31-.26-.59-.46-.87l.31-.17c.18,.24,.34,.53,.48,.87Z"/>
      <path class="cls-1" d="M20.57,3.86h-.91v2.2c0,.14-.05,.26-.14,.37-.1,.1-.33,.16-.71,.16-.23,0-.48-.01-.75-.04l-.14-.38c.31,.02,.69,.03,1.13,.03,.06,0,.11-.02,.16-.07,.04-.05,.07-.1,.07-.16V3.86h-3.61c-.03,1.22-.33,2.14-.9,2.75l-.27-.29c.51-.58,.77-1.4,.81-2.46h-.81v-.37h.81V.63h4.35V3.49h.91v.37Zm-1.29-.37V.99h-3.6V3.49h3.6Zm-1.08-.57l-.31,.19c-.35-.59-.78-1.11-1.28-1.55l.31-.22c.59,.57,1.02,1.1,1.28,1.58Z"/>
      <path class="cls-1" d="M27.58,6.32l-.25,.33c-1.1-.36-2.04-.87-2.8-1.53-.76,.66-1.69,1.16-2.81,1.51l-.27-.31c1.18-.34,2.11-.83,2.81-1.47-.66-.69-1.18-1.52-1.54-2.5l.33-.15c.35,.96,.85,1.77,1.48,2.42,.67-.76,1.15-1.66,1.43-2.69h-4.48v-.37h2.93c-.18-.36-.39-.7-.62-1.01l.37-.14c.28,.42,.5,.8,.64,1.15h2.78v.37h-1.24c-.31,1.18-.82,2.16-1.52,2.93,.69,.62,1.62,1.11,2.77,1.46Z"/>
      <path class="cls-1" d="M30.5,.55c-.09,.25-.23,.58-.41,.99l-.28,.59V6.6h-.38V2.79c-.2,.33-.44,.65-.72,.97l-.25-.29c.62-.71,1.18-1.72,1.67-3.02l.37,.11Zm4.09,4.42c0,.35-.03,.68-.1,.98-.07,.3-.21,.47-.41,.52s-.76,.06-1.66,.06c-.22,0-.4,0-.56,0s-.28-.05-.37-.15-.13-.23-.13-.39V.45h.39V2.82h2.72v.37h-2.72v2.77s.02,.09,.05,.13c.03,.04,.07,.06,.11,.06,.04,0,.2,0,.46,0,.94,0,1.48-.02,1.62-.05s.22-.46,.24-1.29l.37,.15Z"/>
      <path class="cls-1" d="M38.35,1.22h-.87v.25h-.35v-.25h-1.66v-.32h1.66V.49h.35v.42h.87v.32Zm3.19,4.39h-3.93c-.33,.31-.68,.52-1.06,.62,1.47-.05,2.65-.11,3.52-.19-.09-.06-.2-.11-.31-.15l.29-.21c.5,.22,.9,.46,1.2,.71l-.25,.2c-.13-.1-.29-.21-.48-.32-1.85,.18-3.43,.27-4.71,.26l-.03-.29c.43-.06,.87-.27,1.34-.62h-1.63v-.31h6.06v.31Zm-2.82-2.93h-.66v.2c0,.08,.04,.11,.12,.11h.48v.25h-.58c-.24,0-.36-.12-.36-.37v-.19h-.98c-.08,.31-.28,.56-.61,.75h.92v-.37h.35v.37h1.05v.29h-1.05v.3c.44-.03,.84-.07,1.22-.13v.29c-1.04,.1-2.01,.18-2.93,.24l-.03-.3c.53-.02,.99-.05,1.39-.08v-.33h-1.01v-.24c-.13,.05-.26,.09-.38,.11l-.15-.27c.45-.09,.74-.31,.89-.64h-.82v-.27h1.46v-.29h-1.2v-.27h1.2v-.19h.35v.19h1.13v.27h-1.13v.29h1.32v.27Zm2.08,2.25h-4.59v-.29h4.59v.29Zm.72-3.7h-1.68v.25h-.35v-.25h-.81v-.32h.81V.49h.35v.42h1.68v.32Zm.05,2.26c-.06,.35-.13,.6-.22,.75s-.2,.23-.34,.23c-.16,0-.27-.09-.34-.26-.07-.18-.1-.51-.1-1.01,0-.18,0-.43,.02-.76h-.57c-.02,.38-.07,.7-.15,.95,.15,.11,.32,.26,.52,.43l-.17,.25c-.25-.21-.4-.34-.47-.39-.17,.29-.39,.56-.67,.79l-.23-.25c.27-.21,.48-.45,.63-.74-.19-.13-.39-.26-.59-.37l.15-.24c.17,.09,.35,.19,.53,.31,.06-.18,.1-.43,.13-.76h-.69v-.29h.71c.02-.17,.02-.33,.01-.48h.35c0,.14,0,.3-.01,.48h.9c-.04,.48-.05,.86-.05,1.15,0,.56,.04,.84,.13,.84,.06,0,.11-.08,.16-.25s.08-.36,.09-.58l.3,.19Z"/>
      <path class="cls-1" d="M44.02,2.29c-.15,.28-.31,.56-.48,.82v3.45h-.37V3.59c-.21,.24-.39,.43-.55,.57l-.21-.29c.51-.47,.93-1.03,1.26-1.68l.35,.11Zm.08-1.74c-.41,.57-.9,1.06-1.46,1.48l-.19-.31c.53-.41,.97-.85,1.32-1.32l.34,.15Zm.59,2.22c0,1.43-.13,2.47-.4,3.14l-.36-.11c.26-.72,.4-1.72,.42-3.02h.33Zm2.12-.68h-1.24V6.57h-.36V2.09h-1.12v-.36h1.12V.45h.36V1.73h1.24v.36Zm-.12-.86l-.29,.21c-.15-.27-.32-.51-.51-.71l.25-.22c.27,.28,.46,.53,.55,.72Zm.43,4.21h-.57c-.14,0-.25-.04-.32-.12-.08-.08-.12-.19-.12-.31V2.77h.36v2.2s.01,.05,.04,.08,.06,.04,.08,.04h.52v.35Zm1.44-2.58h-.57v3.18c0,.12-.04,.23-.11,.33s-.27,.15-.59,.15c-.13,0-.25,0-.39-.01l-.13-.38c.34,.02,.56,.03,.66,.03,.14,0,.21-.08,.21-.23V2.85h-.87v-.35h1.78v.35Zm-.14-1.62h-1.46v-.35h1.46v.35Z"/>
      <path class="cls-1" d="M51.56,2.02h-.78v1.27c.18-.09,.39-.23,.63-.4l.08,.37c-.26,.18-.5,.34-.71,.45v2.43c0,.1-.03,.19-.09,.26-.06,.07-.12,.12-.19,.14-.07,.02-.22,.03-.44,.03-.11,0-.22,0-.31-.01l-.11-.37c.06,0,.27,0,.63,0,.04,0,.07-.02,.11-.06,.04-.04,.06-.08,.06-.12V3.92c-.21,.15-.49,.3-.86,.48l-.13-.33c.42-.21,.75-.4,.99-.57v-1.48h-.91v-.35h.91V.46h.35V1.67h.78v.35Zm4.02,4.13l-.12,.37h-.92c-.6,0-1.08-.05-1.45-.16-.36-.11-.68-.38-.94-.82-.19,.45-.41,.81-.65,1.07l-.3-.23c.52-.58,.8-1.28,.83-2.1l.35,.03c-.01,.26-.05,.51-.1,.77,.26,.53,.59,.84,.98,.93V3.87h-1.8v-.36h3.94v.36h-1.77v.82h1.54v.35h-1.54v1.06c.21,.04,.49,.06,.84,.06h1.12Zm-.6-3.18h-3.03V.63h3.03V2.97Zm-.35-1.38V.97h-2.32v.62h2.32Zm0,1.03v-.68h-2.32v.68h2.32Z"/>
      <path class="cls-1" d="M58.27,.56c-.07,.2-.18,.46-.34,.78l-.23,.47V6.57h-.36V2.42c-.22,.34-.47,.68-.74,1.02l-.19-.37c.55-.62,1.06-1.49,1.52-2.61l.34,.11Zm1.57,4.21c-.46,.75-.97,1.37-1.53,1.85l-.28-.25c.48-.39,.98-.98,1.5-1.77l.31,.17Zm2.69-.57h-4.48v-.36h1.19v-1.62h-1.08v-.36h1.08V.49h.37V1.88h1.34V.49h.39V1.88h1.02v.36h-1.02v1.62h1.19v.36Zm-1.58-.36v-1.62h-1.34v1.62h1.34Zm1.6,2.53l-.3,.22c-.35-.52-.88-1.12-1.6-1.8l.31-.21c.71,.66,1.24,1.26,1.59,1.79Z"/>
      <path class="cls-1" d="M6.61,12.6l-.15,.36c-1.19-.15-2.15-.41-2.89-.77-.8,.33-1.76,.59-2.85,.76l-.23-.35c1.06-.15,1.95-.36,2.66-.63-.4-.25-.75-.51-1.05-.8-.34,.27-.67,.49-.98,.67l-.25-.28c.84-.46,1.45-.99,1.83-1.61l.37,.15c-.12,.19-.23,.34-.33,.45h2.71v.35c-.34,.38-.83,.74-1.48,1.1,.7,.3,1.59,.5,2.65,.6Zm-.3-1.7h-.36v-1.12H1.09v1.1h-.37v-1.44H3.41c-.05-.14-.15-.3-.31-.5l.39-.12c.13,.21,.24,.41,.34,.62h2.47v1.46Zm-.71,4.08h-.36v-.31H1.81v.31h-.36v-1.94H5.61v1.94Zm-.36-.67v-.91H1.81v.91h3.43Zm-.33-3.41H2.42l-.04,.04c.33,.34,.72,.63,1.17,.86,.57-.27,1.03-.57,1.37-.9Z"/>
      <path class="cls-1" d="M13.28,9.23c-1.63,.33-3.13,.49-4.5,.49v.93h4.49v2.25h-4.56c-.13,.88-.46,1.59-.99,2.14l-.27-.31c.38-.36,.63-.78,.76-1.26,.13-.47,.2-1.3,.2-2.47v-1.62c1.54,0,3.09-.15,4.66-.48l.21,.33Zm-.39,3.29v-1.51h-4.1c0,.26-.01,.77-.03,1.51h4.14Z"/>
      <path class="cls-1" d="M20.12,14.99h-.37v-.45h-3.31v.46h-.39v-2.43c-.54,.2-.99,.35-1.34,.45l-.21-.34c1.1-.3,2.03-.65,2.8-1.07-.28-.4-.67-.82-1.16-1.24-.35,.23-.75,.46-1.18,.68l-.3-.3c1.06-.45,1.94-1.09,2.65-1.92l.36,.17c-.1,.12-.23,.26-.38,.41h2.72v.31c-.76,1.02-1.78,1.85-3.07,2.49h3.18v2.79Zm-.37-.82v-1.6h-3.31v1.6h3.31Zm-.28-4.4h-2.55c-.16,.13-.31,.26-.47,.38,.46,.41,.85,.82,1.19,1.25,.74-.47,1.35-1.01,1.83-1.62Z"/>
      <path class="cls-1" d="M23.72,11.99l-.18,.29c-.23-.24-.48-.46-.74-.67v3.35h-.36v-3.27c-.23,.58-.48,1.09-.76,1.53l-.25-.31c.38-.58,.71-1.25,.98-2h-.93v-.35h.95v-1.06c-.32,.06-.61,.11-.85,.13l-.09-.33c.78-.09,1.44-.24,1.97-.44l.14,.31c-.35,.13-.62,.21-.81,.24v1.13h.91v.35h-.91v.29c.28,.18,.58,.44,.93,.78Zm3.83,1.7h-.55v.79c0,.19-.05,.32-.16,.39-.11,.08-.29,.11-.53,.11-.12,0-.26,0-.4-.02l-.13-.36c.33,0,.55,.01,.66,.01,.14,0,.21-.08,.21-.23v-.7h-2.31v1.26h-.34v-1.26h-.65v-.35h.65v-2.13h1.32v-.42h.36v.42h1.34v2.13h.55v.35Zm-.26-4.51c-.87,.28-1.98,.42-3.34,.42l-.12-.35c1.31,.02,2.4-.1,3.26-.38l.19,.31Zm-2.62,1.58l-.31,.17c-.11-.32-.27-.63-.45-.93l.29-.17c.22,.33,.38,.64,.48,.93Zm.65,1.51v-.73h-.97v.73h.97Zm0,1.07v-.74h-.97v.74h.97Zm.55-2.8l-.34,.12c-.07-.28-.17-.53-.29-.75l.32-.15c.13,.24,.24,.5,.31,.78Zm.79,1.73v-.73h-.98v.73h.98Zm0,1.07v-.74h-.98v.74h.98Zm.74-3.53c-.14,.39-.32,.73-.54,1.04l-.33-.18c.2-.24,.38-.57,.55-.99l.32,.13Z"/>
      <path class="cls-1" d="M28.41,11.17c0-.11,.04-.21,.12-.29,.08-.08,.17-.12,.28-.12s.2,.04,.28,.12c.08,.08,.12,.17,.12,.29s-.04,.21-.12,.28c-.08,.08-.17,.12-.28,.12s-.2-.04-.28-.11c-.08-.08-.12-.17-.12-.29Zm0,3.14c0-.11,.04-.21,.12-.29,.08-.08,.17-.12,.28-.12s.2,.04,.28,.12c.08,.08,.12,.17,.12,.29s-.04,.2-.12,.28c-.08,.08-.17,.12-.28,.12s-.2-.04-.28-.11c-.08-.08-.12-.17-.12-.29Z"/>
      <path class="cls-1" d="M33.01,9.94h-.9v.69h-.36v-.69h-1.66v-.36h1.66v-.73h.36v.73h.9v.36Zm-1.32,2.71l-.21,.3c-.42-.32-.87-.6-1.34-.82l.19-.31c.51,.24,.96,.52,1.35,.82Zm.43,.83c-.54,.57-1.13,1.07-1.75,1.49l-.19-.32c.51-.33,1.09-.82,1.75-1.48l.19,.31Zm-.04-2.02l-.22,.31c-.45-.36-.88-.63-1.3-.81l.22-.32c.57,.29,1,.56,1.3,.82Zm4.12,2.04c-.03,.49-.08,.82-.17,.99-.08,.17-.19,.28-.34,.33s-.52,.07-1.11,.07c-.36,0-.71,0-1.04-.01-.33,0-.54-.03-.61-.07-.08-.04-.14-.09-.2-.18s-.09-.19-.09-.33v-3.39h2.99c0,.46,0,.88-.02,1.26-.02,.38-.05,.61-.1,.68-.04,.07-.12,.15-.24,.22-.11,.08-.32,.11-.62,.11-.19,0-.38,0-.55-.02l-.12-.39c.37,.03,.66,.04,.85,.04,.18,0,.3-.07,.36-.2,.06-.13,.09-.58,.08-1.35h-2.29v3c0,.06,.02,.11,.06,.16,.04,.05,.1,.08,.18,.09,.08,0,.38,.01,.9,.01,.78,0,1.25-.02,1.4-.05,.16-.04,.25-.41,.27-1.13l.38,.15Zm0-3.56h-1.64v.71h-.35v-.71h-.9v-.36h.9v-.72h.35v.72h1.64v.36Z"/>
      <path class="cls-1" d="M39.55,12.03l-.78,.5v2.51h-.35v-2.3c-.46,.23-.87,.43-1.22,.59l-.15-.33c.51-.21,.96-.43,1.36-.67v-1.52h-.69c-.1,.46-.21,.85-.32,1.16l-.32-.14c.22-.61,.38-1.35,.48-2.21l.35,.09c-.02,.22-.06,.48-.11,.76h.62v-1.53h.35v1.53h.73v.35h-.73v1.32c.24-.14,.48-.29,.72-.45l.06,.38Zm3.63,.63h-.79v1.98c0,.1-.04,.18-.11,.25-.07,.07-.17,.11-.3,.12-.13,.01-.33,.02-.59,.02-.14,0-.27,0-.39,0l-.12-.36c.29,.01,.52,.02,.68,.02,.23,0,.36-.02,.4-.05,.04-.03,.06-.09,.06-.18v-1.79h-2.63v-.35h2.63v-.65h.36v.65h.79v.35Zm-.17-2.58h-1.51v.98h1.33v.33h-3.08v-.33h1.39v-.98h-1.72v-.36h1.72v-.8h.36v.8h1.51v.36Zm-2.02,3.97l-.31,.19c-.18-.4-.44-.78-.76-1.15l.31-.22c.31,.37,.57,.76,.76,1.17Z"/>
      <path class="cls-1" d="M50.18,13.01h-6.1v-.36h1.85c-.08-.18-.18-.36-.31-.54h-.72v-1.23h4.42v1.23h-.71c-.1,.2-.19,.38-.29,.54h1.86v.36Zm-.17-3.37h-2.71v.49h2.4v.32h-5.15v-.32h2.4v-.49h-2.71v-.35h2.71v-.43h.35v.43h2.71v.35Zm-.51,5.38h-.36v-.34h-4.05v.34h-.36v-1.59h4.78v1.59Zm-.36-.69v-.55h-4.05v.55h4.05Zm-.18-2.56v-.53h-3.69v.53h3.69Zm-.77,.35h-2.14c.15,.28,.25,.46,.29,.54h1.55c.13-.19,.23-.37,.3-.54Z"/>
      <path class="cls-1" d="M52.62,10.7c-.05,.17-.13,.35-.22,.56l-.14,.28v3.41h-.36v-2.78c-.19,.29-.41,.57-.65,.82l-.22-.27c.53-.57,.96-1.28,1.27-2.12l.31,.1Zm-.04-1.74c-.38,.8-.8,1.44-1.28,1.9l-.24-.25c.49-.51,.9-1.11,1.22-1.8l.3,.15Zm.88,3.33c.04,1.21-.16,2.07-.59,2.58l-.31-.21c.15-.15,.28-.39,.39-.7s.17-.87,.17-1.67h.34Zm1.58-.45h-2.24v-.35h2.24v.35Zm-.1-.89h-2.03v-1.71h.33v1.36h.51v-1.73h.34v1.73h.5v-1.36h.34v1.71Zm.37,2.69c-.44,.35-.81,.62-1.11,.8l-.21-.33c.08-.07,.12-.16,.12-.27v-1.53h.35v1.55c.3-.19,.53-.36,.71-.5l.15,.29Zm1.91,1.09l-.24,.26c-.33-.3-.63-.65-.89-1.05-.31,.44-.64,.79-1,1.07l-.25-.27c.44-.34,.8-.72,1.06-1.13-.23-.55-.38-1.14-.48-1.78l.33-.09c.07,.54,.19,1.02,.36,1.42,.27-.66,.41-1.44,.41-2.33,0-.18,0-.35-.02-.51h-.64c-.1,.39-.26,.79-.47,1.21l-.27-.26c.34-.65,.57-1.46,.69-2.43l.33,.03c-.05,.41-.11,.78-.18,1.1h1.21v.36h-.3c.02,1.32-.17,2.41-.57,3.26,.2,.39,.5,.78,.92,1.16Z"/>
      <path class="cls-1" d="M62.17,10.29l-.19,.32c-.51-.49-1.09-.94-1.74-1.34-.16,.18-.41,.42-.77,.71h1.57v.32h-1.6v-.3c-.43,.31-.82,.57-1.17,.77l-.19-.31c.91-.49,1.6-1.04,2.07-1.64l.39,.1s-.04,.06-.06,.08c.69,.46,1.25,.89,1.69,1.31Zm-.45,4.7h-.34v-.36h-2.02v.36h-.35v-1.54c-.11,.65-.32,1.16-.64,1.52l-.26-.23c.44-.67,.65-1.48,.65-2.43v-1.61h2.96v1.94h-2.61c0,.12-.02,.29-.05,.53h2.66v1.81Zm-.35-3.49v-.46h-2.25v.46h2.25Zm0,.81v-.48h-2.25v.48h2.25Zm0,1.99v-.79h-2.02v.79h2.02Zm2.65,.08c0,.16-.04,.29-.13,.39-.1,.11-.23,.18-.4,.19-.2,0-.4,.01-.61,.02h-.28l-.13-.38c.3,0,.63,0,.97,0,.06,0,.11-.03,.15-.09,.04-.06,.06-.11,.06-.17v-5.47h.36v5.51Zm-1.18-.69h-.35s0-4.5,0-4.5h.35v4.5Z"/>
      <path class="cls-1" d="M71.19,14.72l-.25,.33c-1.1-.36-2.04-.87-2.8-1.53-.76,.66-1.69,1.16-2.81,1.51l-.27-.31c1.18-.34,2.11-.83,2.81-1.47-.66-.69-1.18-1.52-1.54-2.5l.33-.15c.35,.96,.85,1.77,1.48,2.42,.67-.76,1.15-1.66,1.43-2.69h-4.48v-.37h2.93c-.18-.36-.39-.7-.62-1.01l.37-.14c.28,.42,.5,.8,.64,1.15h2.78v.37h-1.24c-.31,1.18-.82,2.16-1.52,2.93,.69,.62,1.62,1.11,2.77,1.46Z"/>
      <path class="cls-1" d="M74.11,8.95c-.09,.25-.23,.58-.41,.99l-.28,.59v4.47h-.38v-3.82c-.2,.33-.44,.65-.72,.97l-.25-.29c.62-.71,1.18-1.72,1.67-3.02l.37,.11Zm4.09,4.42c0,.35-.03,.68-.1,.98-.07,.3-.21,.47-.41,.52s-.76,.06-1.66,.06c-.22,0-.4,0-.56,0s-.28-.05-.37-.15-.13-.23-.13-.39v-5.53h.39v2.38h2.72v.37h-2.72v2.77s.02,.09,.05,.13c.03,.04,.07,.06,.11,.06,.04,0,.2,0,.46,0,.94,0,1.48-.02,1.62-.05s.22-.46,.24-1.29l.37,.15Z"/>
    </g>
  </g>
</svg>